<?xml version="1.0" encoding="UTF-8"?>
<svg id="Livello_1" data-name="Livello 1" xmlns="http://www.w3.org/2000/svg" viewBox="0 0 512 480.9">
  <path d="M0,11.81C2.92,6.59,6.03,1.89,12.56.87,24.36-.97,61.07.08,71.99,4.33c19.58,7.61,27.1,27.76,32.73,46.27,6.09,20.03,10.09,40.9,15.33,61.17l357.44.06c12.35,1.2,22.84,8.23,29.32,18.68l5.2,13.3v162c-3.51,17.24-13.82,32.93-30.31,40.19-3.8,1.67-14.41,4.81-18.19,4.81h-25.5v16c37.15,9.86,55.31,50.38,36.17,84.67-17.73,31.77-61.01,38.79-88.7,15.35-36.36-30.77-22.16-87.39,22.53-100.03v-16h-159v16c44.65,12.46,58.74,69.37,22.53,100.03-42.95,36.35-107.9-3.06-94.87-57.87,4.8-20.19,22.12-37.5,42.34-42.16v-16h-34.5c-19.5,0-38.02-21.34-43.25-38.75-23.53-81.44-40.19-165-63.54-246.46-3.24-11.32-7.49-32.82-21.3-34.7s-32.19,2.23-44.69-.31c-6.18-1.26-8.85-5.85-11.73-10.77v-8ZM128,141.81l41.98,161.52c3.56,9.31,9.38,17.82,20.48,17.52h269.08c11.18-.45,21.73-8.95,22.5-20.5l-.02-151.06c.59-2.45-3.62-7.48-5.52-7.48H128ZM228.76,395.07c-35.1,5.07-29.32,59.97,8.63,55.62,36.54-4.18,30.59-61.29-8.63-55.62ZM418.76,395.07c-35.9,5.18-28.89,60.53,8.66,55.65s29.93-61.21-8.66-55.65Z"/>
</svg>