<?xml version="1.0" encoding="UTF-8"?>
<svg id="Livello_1" data-name="Livello 1" xmlns="http://www.w3.org/2000/svg" viewBox="0 0 383.29 337.86">
  <defs>
    <style>
      .cls-1 {
        fill: #fff;
      }
    </style>
  </defs>
  <path class="cls-1" d="M0,219.35V29.22C3.12,13.36,14.8,1.89,31.08.04l320.39-.04c16.97,1.49,30.02,14.16,31.77,31.1l.05,215.6c-2.22,39.34-28.59,74.9-65.94,87.51-15.79,5.33-22.3,4.67-37.79-1.07-34.78-12.9-60.61-46.87-62.59-84.13l-1.13-1.12-187.7-.19c-13.36-2.07-26.43-14.85-28.15-28.36ZM22.46,31.09c-.78,3.77.57,9.78,0,13.85h338.34v-13.1c0-2.76-4.71-8.28-7.81-8.66l-318.95-.73c-4.57-.23-10.67,4.24-11.57,8.64ZM360.8,67.4H22.46v23.2h338.34v-23.2ZM360.8,113.06H22.46v103.67c0,2.44,5.55,8.61,7.86,8.61h186.01v-44.54c0-2.22,4.05-6.93,6.22-8.01l75.04-37.23,6.11.53,57.1,28.61v-51.65ZM360.67,189.53l-60.88-30.01-60.88,30.01c1.04,36.34-7.16,72.27,18.61,102.04,8.18,9.45,30.03,24.27,42.75,23.93,13.12-.35,33.75-14.52,42.2-24.27,25.69-29.66,16.99-65.54,18.21-101.69Z"/>
  <path class="cls-1" d="M48.16,138.76c1.05-1.06,3.15-1.78,4.44-2.68l117.7-.57c13.72,1.95,13.05,20.98-.75,22.46H55.76c-9.35-.78-14.56-12.24-7.6-19.21Z"/>
  <path class="cls-1" d="M48.16,199.63c-6.95-6.97-1.74-18.43,7.6-19.21l89.01.07c13.56,1.85,13.64,20.94.07,22.39H55c-1.94-.23-5.48-1.88-6.84-3.25Z"/>
  <path class="cls-1" d="M320.18,210.54c9.5-1.63,16.99,8.57,11.77,17.02-1.15,1.86-5.92,6.09-7.82,7.9-6.87,6.56-21.67,21.11-28.95,25.69-4.91,3.09-9.46,3-14.1-.63-1.93-1.52-8.66-8.99-10.49-11.22-.91-1.1-3.44-4.13-3.78-5.21-3.41-11.01,7.29-19.68,17.14-13.4,1.4.89,4.83,5.27,6.01,5.06,8.54-6.67,16.31-15.91,24.82-22.38,1.57-1.19,3.42-2.51,5.4-2.84Z"/>
</svg>