<?xml version="1.0" encoding="UTF-8"?>
<svg id="Livello_1" data-name="Livello 1" xmlns="http://www.w3.org/2000/svg" viewBox="0 0 408.84 365.66">
  <defs>
    <style>
      .cls-1 {
        fill: #fff;
      }
    </style>
  </defs>
  <path class="cls-1" d="M0,23.98C3,10.29,12.53,1.12,26.72,0h355.36c15,1.18,25.57,11.78,26.75,26.75v249.97c.43,11.65-12.67,26.72-24.38,26.72h-136.13v38.33h29.94c.36,0,5.39,3.13,6,3.8,6.72,7.38,2.28,17.88-6.85,20.1l-147.85-.56c-8.01-3.18-11.17-12.79-5.02-19.54.62-.68,5.65-3.8,6-3.8h29.94v-38.33H24.35c-11.01,0-23.01-13.43-24.35-23.95V23.98ZM23.95,26.78c-1.04,5.75.77,14.28,0,20.36h360.9v-20.36c0-.48-1.08-2.06-1.78-2.27l-357.77.21c-.44.27-1.26,1.6-1.34,2.05ZM384.85,71.09H23.95v161.28h360.9V71.09ZM384.85,256.33H23.95v20.36c0,.31.93,1.8,1.34,2.05l357.77.21c.7-.21,1.78-1.79,1.78-2.27v-20.36ZM223.56,303.44h-38.33v38.33h38.33v-38.33Z"/>
  <path class="cls-1" d="M177.89,82.5c5.63-.57,10.66-.21,16.16.94,2.22.47,9.59,3.52,10.62,3.43,1.89-.16,7.83-3.01,10.73-3.59,35.61-7.05,65.13,21.95,61.56,57.57-2.8,27.97-39.46,51.64-55.37,73.17-10.74,9.71-23.63,9.71-34.37,0-13.16-16.38-31.65-31.05-44.27-47.55-24.98-32.64-6.34-79.79,34.94-83.98ZM180.27,106.45c-22.86,2.51-32.07,28.23-17.8,46.09,8.79,11.01,22.28,24.38,32.33,34.74,1.26,1.3,8.82,9.29,9.89,9.1,3.31-3.09,6.56-6.26,9.7-9.51,8.07-8.33,33.65-33.93,37.01-42.83,8.51-22.53-12.83-43.94-35.25-36.04-3.87,1.36-7.68,4.65-12.08,4.54-7.61-.2-12.08-7.38-23.81-6.09Z"/>
</svg>