<?xml version="1.0" encoding="UTF-8"?>
<svg id="Livello_1" data-name="Livello 1" xmlns="http://www.w3.org/2000/svg" viewBox="0 0 512 467.5">
  <defs>
    <style>
      .cls-1 {
        fill: #fff;
      }
    </style>
  </defs>
  <path class="cls-1" d="M0,238.78c1.77-3.9,6.78-11,11.5-11h61.5v-32.5c0-4.65,9.33-12.55,14.46-11.54,99.53.93,199.45-1.68,298.76,1.32,7.81,2.7,13.88,7.83,17.96,15.04l33.07,74.44c27.88,13.03,59.89,17.22,71.52,49.97l3.23,12.27v75c-6.03,17.07-25.06,9.2-38.86,11.14-5.57,59.49-88.68,59.33-93.14-.14l-179.44-.03c-6.06,59.4-87.8,59.89-93.67.15-9.85-1.4-24.01,3.59-30.91-5.6-.7-.93-2.99-5.33-2.99-6.01v-33.5h-28.5c-5.98,0-12.58-9.6-12.58-15.5,0-5.49,5.87-14.5,11.58-14.5h29.5v-30h-28.5c-5.98,0-12.58-9.6-12.58-15.5,0-5.49,5.87-14.5,11.58-14.5h29.5v-30H12.5c-4.58,0-11.13-7.82-12.5-12v-7ZM317,213.78H103v74h25.5c5.71,0,11.58,9.01,11.58,14.5,0,5.9-6.6,15.5-12.58,15.5h-24.5v75c3.92-.54,9.7.86,13.3-.2,1.42-.42,8.86-8.29,11.79-10.21,20.66-13.48,46.46-8.85,61.93,9.89h199.96c15.04-18.43,40.2-23.15,60.71-10.68,3.26,1.98,11.96,11.19,12.81,11.19h18.5v-53.5c0-20.91-42.39-29.44-56.94-37.06-29.19-3.6-65.08,3.34-93.47-.53-2.86-.39-7.53-2.38-9.63-4.37-1.34-1.26-4.95-7.71-4.95-9.05v-74.5ZM378,213.78h-31v56.5l1.5,1.5h54.5l-25-58ZM149.72,405.01c-20.08,4.14-14.29,36.98,7.55,32.54,20.14-4.09,15.02-37.2-7.55-32.54ZM437.65,433.43c14.62-13.47-3.87-37.88-21.16-25.66-18.33,12.97,3.89,41.57,21.16,25.66Z"/>
  <path class="cls-1" d="M184,119.28c-1.9,6.82-24.16,8.52-25.98-1.02l-.07-111.03c.05-3.31,3.54-5.91,6.61-6.39,8.9-1.41,34.26-.8,43.81.07,7.58.69,16.9,3.35,22.95,8.05,18.23,14.13,15.04,54.06-8.26,61.9l-.08,1.36,21.09,40.04c-.92,9.35-14.39,16.98-22.47,12.41-4.99-2.82-21.28-41.55-25.77-48.72l-11.84-.16v43.5ZM184,55.78h20.5c.36,0,5.19-1.74,5.87-2.13,8.2-4.73,8.03-23.62-.66-28.08-.6-.31-4.93-1.79-5.21-1.79h-20.5v32Z"/>
  <path class="cls-1" d="M300,101.78h47.5c7.06,0,9.27,19.8,1.59,22.57l-69.84-.33c-2.3-1.66-5.25-3.52-5.31-6.69,2.45-34.5-3.08-73.1,0-107.1.54-5.9,2.96-7.81,8.61-9.39l64.91-.04c6.92,2.41,8.14,12.39,5.3,18.25-.46.95-3.9,4.73-4.27,4.73h-47l-1.5,1.5v26l1.5,1.5h27c2.49,0,5.61,7.75,5.59,10.51s-2.59,9.49-5.59,9.49h-27l-1.5,1.5v27.5Z"/>
  <path class="cls-1" d="M409,23.78v29h28.5c2.24,0,5.37,8.16,5.34,10.52-.03,2.2-3.52,9.48-5.34,9.48h-28.5v29h47.5c6.57,0,9.36,21.31-.03,22.97l-65.91-.04c-4.45-1.03-7.97-3.31-7.61-8.39,2.31-34.64-2.91-72.89,0-107.09.55-6.51,3.45-7.23,9.54-8.46l63.79.21c10.03,2.24,6.83,22.79.21,22.79h-47.5Z"/>
  <path class="cls-1" d="M80,23.78v29h27.5c5.21,0,6.3,11.07,5.05,15.06-.34,1.08-3.5,4.94-4.05,4.94h-28.5v44.5c0,9.19-24.54,10.85-26.79.79l.54-112.03c1.44-3.37,6.34-4.88,9.74-5.26,19.11-2.14,42.25,1.42,61.79.22,10.03,2.24,6.83,22.79.21,22.79h-45.5Z"/>
</svg>