<?xml version="1.0" encoding="UTF-8"?>
<svg id="Livello_1" data-name="Livello 1" xmlns="http://www.w3.org/2000/svg" viewBox="0 0 383.29 336.9">
  <defs>
    <style>
      .cls-1 {
        fill: #fff;
      }
    </style>
  </defs>
  <path class="cls-1" d="M0,307.68V29.22C2.92,13.29,14.85,1.71,31.08.04l320.39-.04c17.54,1.37,30.29,14.41,31.81,31.81v272.53c-1.26,18.16-14.31,31.48-32.55,32.56l-319.65-.05c-15.19-1.24-29.23-13.81-31.08-29.18ZM135.49,22.48H31.06c-2.12,0-8.06,5.52-8.26,8.21v275.51c1.48,4.58,5.63,7.91,10.46,8.25h316.71c6.25-.61,10.24-4.61,10.85-10.85l-.02-271.03c-.22-1.82-1.79-5.44-2.99-6.74-.54-.58-5.31-3.35-5.63-3.35h-104.42v103.67c0,.51-2.95,5.28-3.77,5.96-9.59,7.97-16.26-2.52-23.38-7.25-17.52-11.64-40.46-11.64-57.98,0-5.87,3.9-10.32,11.39-18.38,9.73-3.07-.63-8.78-5.21-8.78-8.44V22.48ZM225.31,22.48h-67.37v79.35c20.65-10.82,46.73-10.93,67.37,0V22.48Z"/>
  <path class="cls-1" d="M107.04,179.68h158.32c12.46,0,30.67,12.1,38.11,21.77,27.58,35.85,3.71,86.66-40.33,90.54H100.66c-13.42-2.35-13.44-20.15,0-22.5l160.23.04c27.64-1.95,41.94-34.5,23.57-55.81-4.2-4.88-14.89-11.58-21.35-11.58H107.04c13.67,10.86.99,30.28-13.49,19.11-4.61-3.56-18.53-17.48-22.08-22.08-4.56-5.9-4.56-10.6,0-16.5,3.56-4.61,17.47-18.52,22.08-22.08,14.48-11.18,27.16,8.24,13.49,19.11Z"/>
</svg>